<svg version="1.1" viewBox="0 0 1e3 1e3" xmlns="http://www.w3.org/2000/svg"><g transform="matrix(5.8647 0 0 5.8647 14.971 -.0017636)" fill="#213f30" fill-rule="evenodd"><path d="m11.48 71.38c0-2.73 1.61-3.78 3.29-3.78 2.8 0 3.85 2.45 3.92 5.6l0.07 2.52 9.24-0.49-0.14-2.94c-0.49-10.64-6.02-13.79-13.23-13.79-9.38 0-13.86 6.09-13.86 13.79 0 7.49 3.29 11.76 8.96 16.8 3.85 3.36 7.84 6.581 7.84 10.15 0 2.591-1.05 3.92-3.29 3.92-2.59 0-4.41-1.61-4.69-6.65l-0.14-2.589-9.45 0.489 0.21 4.06c0.56 10.991 7.28 13.93 14.28 13.93 9.8 0 14.14-5.95 14.14-14.49 0-7.84-4.48-11.76-9.24-16.17-5.67-5.32-7.91-6.72-7.91-10.36zm24.85 40.32h11.9v-43.4h7v-9.1h-25.9v9.1h7zm51.099 0-6.02-23.94c3.64-2.66 5.67-7.56 5.67-13.44 0-9.87-5.39-15.12-13.72-15.12h-15.33v52.5h11.9v-21.21h0.98l4.69 21.21zm-17.5-43.75h1.47c1.89 0 3.78 1.12 3.78 7.84 0 6.65-2.17 7.7-4.2 7.7h-1.05zm41.929 43.75v-9.1h-8.75v-15.05h7.35v-7h-7.35v-12.25h8.75v-9.1h-20.65v52.5zm24.849 0v-9.1h-8.75v-15.05h7.35v-7h-7.35v-12.25h8.75v-9.1h-20.65v52.5zm9.799 0h11.9v-43.4h7v-9.1h-25.9v9.1h7zm-135.03-98.82c0-2.73 1.61-3.78 3.29-3.78 2.8 0 3.85 2.45 3.92 5.6l0.07 2.52 9.24-0.49-0.14-2.94c-0.49-10.64-6.02-13.79-13.23-13.79-9.38 0-13.86 6.09-13.86 13.79 0 7.49 3.29 11.76 8.96 16.8 3.85 3.36 7.84 6.58 7.84 10.15 0 2.59-1.05 3.92-3.29 3.92-2.59 0-4.41-1.61-4.69-6.65l-0.14-2.59-9.45 0.49 0.21 4.06c0.56 10.99 7.28 13.93 14.28 13.93 9.8 0 14.14-5.95 14.14-14.49 0-7.84-4.48-11.76-9.24-16.17-5.67-5.32-7.91-6.72-7.91-10.36zm24.85 40.32h11.9v-43.4h7v-9.1h-25.9v9.1h7zm38.639 0h11.97l-7.77-52.5h-16.52l-8.54 52.5h11.34l1.33-11.62h7zm-7.35-18.62 2.87-24.92 2.59 24.92zm25.689 18.62h11.9v-43.4h7v-9.1h-25.9v9.1h7zm43.4 0v-9.1h-8.75v-15.05h7.35v-7h-7.35v-12.25h8.75v-9.1h-20.65v52.5zm-127.33 117h5.326l-3.457-23.36h-7.351l-3.8 23.36h5.046l0.592-5.171h3.114zm-3.271-8.284 1.278-11.09 1.152 11.09zm10.154 8.284h6.697c4.704 0 7.102-3.737 7.102-11.712 0-7.942-2.398-11.648-7.102-11.648h-6.697zm8.348-11.712c0 6.323-0.841 7.663-2.274 7.663h-0.778v-15.263h0.778c1.433 0 2.274 1.308 2.274 7.6zm11.462-11.648h-5.326l3.551 23.36h7.164l3.894-23.36h-5.047l-2.242 19.374zm10.995 23.36h5.295v-23.36h-5.295zm12.21-17.94c0-1.215 0.717-1.683 1.464-1.683 1.246 0 1.713 1.091 1.745 2.491l0.031 1.122 4.111-0.218-0.062-1.307c-0.218-4.736-2.679-6.138-5.887-6.138-4.174 0-6.167 2.71-6.167 6.138 0 3.332 1.464 5.231 3.987 7.474 1.713 1.496 3.488 2.928 3.488 4.517 0 1.152-0.467 1.744-1.464 1.744-1.152 0-1.962-0.717-2.087-2.959l-0.062-1.152-4.205 0.218 0.093 1.806c0.25 4.891 3.24 6.199 6.355 6.199 4.36 0 6.292-2.648 6.292-6.448 0-3.489-1.994-5.232-4.112-7.195-2.523-2.367-3.52-2.99-3.52-4.609zm16.228 18.252c4.766 0 7.196-3.271 7.196-12.024 0-8.689-2.43-11.961-7.196-11.961-4.734 0-7.164 3.272-7.164 11.961 0 8.753 2.43 12.024 7.164 12.024zm0-4.049c-1.152 0-1.775-1.278-1.775-7.975 0-6.666 0.623-7.911 1.775-7.911 1.153 0 1.807 1.245 1.807 7.911 0 6.697-0.654 7.975-1.807 7.975zm22.395 3.737-2.678-10.652c1.62-1.184 2.523-3.365 2.523-5.981 0-4.391-2.398-6.727-6.105-6.727h-6.822v23.36h5.295v-9.438h0.437l2.087 9.438zm-7.787-19.468h0.655c0.84 0 1.682 0.499 1.682 3.489 0 2.959-0.967 3.426-1.869 3.426h-0.468zm13.861 1.528c0-1.215 0.717-1.683 1.464-1.683 1.246 0 1.713 1.091 1.745 2.491l0.031 1.122 4.111-0.218-0.062-1.307c-0.218-4.736-2.679-6.138-5.887-6.138-4.174 0-6.167 2.71-6.167 6.138 0 3.332 1.464 5.231 3.986 7.474 1.714 1.496 3.489 2.928 3.489 4.517 0 1.152-0.467 1.744-1.464 1.744-1.153 0-1.962-0.717-2.087-2.959l-0.063-1.152-4.204 0.218 0.094 1.806c0.249 4.891 3.239 6.199 6.354 6.199 4.361 0 6.292-2.648 6.292-6.448 0-3.489-1.995-5.232-4.112-7.195-2.523-2.367-3.52-2.99-3.52-4.609zm-90.297-27.426-0.062-1.309c-0.187-4.017-2.305-6.135-5.638-6.135-4.828 0-7.476 3.831-7.476 11.961 0 8.503 2.648 12.023 6.635 12.023 1.9 0 3.177-0.872 3.8-1.994l0.934 1.682h1.9v-12.521h-6.042v2.803h1.619v4.454c0 1.215-0.591 1.525-1.37 1.525-1.153 0-2.025-1.4-2.025-7.972 0-6.635 0.748-7.913 2.025-7.913 0.903 0 1.495 0.716 1.557 2.679l0.031 0.935zm11.525 16.228v-4.049h-3.583v-19.313h-5.295v23.362zm7.88 0.312c4.766 0 7.195-3.271 7.195-12.023 0-8.692-2.429-11.961-7.195-11.961-4.735 0-7.164 3.269-7.164 11.961 0 8.752 2.429 12.023 7.164 12.023zm0-4.051c-1.153 0-1.775-1.276-1.775-7.972 0-6.666 0.622-7.913 1.775-7.913 1.152 0 1.807 1.247 1.807 7.913 0 6.696-0.655 7.972-1.807 7.972zm9.157 3.739h6.23c4.703 0 7.071-2.336 7.071-7.289 0-2.273-0.841-4.455-3.209-5.482 2.056-0.872 2.991-2.772 2.991-4.797 0-3.8-2.181-5.794-6.759-5.794h-6.324zm7.912-16.821c0 2.182-0.716 2.959-1.931 2.959h-0.685v-5.45h0.529c1.277 0 2.087 0.499 2.087 2.491zm-2.616 12.772v-6.698h0.56c1.309 0 2.15 0.623 2.15 3.241 0 2.834-0.841 3.457-2.15 3.457zm17.878 4.049h5.327l-3.458-23.362h-7.351l-3.8 23.362h5.046l0.592-5.17h3.115zm-3.27-8.286 1.277-11.088 1.152 11.088zm19.031 8.286v-4.049h-3.582v-19.313h-5.295v23.362z"/></g></svg>
